<svg xmlns="http://www.w3.org/2000/svg" xmlns:xlink="http://www.w3.org/1999/xlink" width="18.798" height="27.064" viewBox="0 0 18.798 27.064">
  <defs>
    <clipPath id="clip-path">
      <rect id="Rectangle_31286" data-name="Rectangle 31286" width="18.798" height="27.064" fill="#1a7275"/>
    </clipPath>
  </defs>
  <g id="Group_89686" data-name="Group 89686" clip-path="url(#clip-path)">
    <path id="Path_139746" data-name="Path 139746" d="M75.594,70.135a4.836,4.836,0,1,0,4.836,4.836,4.836,4.836,0,0,0-4.836-4.836m0,8.466a3.633,3.633,0,1,1,3.633-3.633A3.633,3.633,0,0,1,75.594,78.6" transform="translate(-66.195 -65.613)" fill="#1a7275"/>
    <path id="Path_139747" data-name="Path 139747" d="M18.052,5.727a9.408,9.408,0,0,0-17.312,0A9.291,9.291,0,0,0,0,9.379c0,4.39,4.282,10.768,8.909,17.008l.505.681.485-.7.591-.847C12.465,22.7,14.508,19.77,16.083,17a28.454,28.454,0,0,0,1.944-4.016A10.375,10.375,0,0,0,18.8,9.378a9.34,9.34,0,0,0-.747-3.652m-.474,3.652c0,3.862-4.3,10.017-8.088,15.447l-.105.151a89.682,89.682,0,0,1-5.445-8.107C2.11,13.677,1.22,11.227,1.22,9.379a8.179,8.179,0,1,1,16.359,0" transform="translate(0 -0.001)" fill="#1a7275"/>
  </g>
</svg>
